<svg xmlns="http://www.w3.org/2000/svg" version="1.1" xmlns:xlink="http://www.w3.org/1999/xlink" xmlns:svgjs="http://svgjs.dev/svgjs" viewBox="0 0 17.04585290202105 16.5967054871618"><g transform="matrix(1,0,0,1,1.4016233504245879,13.98608213673721)"><rect width="17.04585290202105" height="17.04585290202105" x="-1.4016233504245879" y="-14.210655844166835" fill="#212245"></rect><g><path d=" M 0.054 1.188 L 0.054 0.9299999999999999 L 0.171 0.9299999999999999 L 0.171 0.28049999999999997 L 0.054 0.28049999999999997 L 0.054 0.022499999999999964 L 0.639 0.020999999999999908 L 0.639 0.28049999999999997 L 0.546 0.28049999999999997 L 0.546 0.4724999999999999 L 0.8265 0.4724999999999999 L 0.8265 0.28049999999999997 L 0.7335 0.28049999999999997 L 0.7335 0.020999999999999908 L 1.3185 0.022499999999999964 L 1.3185 0.28049999999999997 L 1.2015 0.28049999999999997 L 1.2015 0.9299999999999999 L 1.3185 0.9299999999999999 L 1.3185 1.188 L 0.7335 1.188 L 0.7335 0.9299999999999999 L 0.8265 0.9299999999999999 L 0.8265 0.7229999999999999 L 0.546 0.7229999999999999 L 0.546 0.9299999999999999 L 0.639 0.9299999999999999 L 0.639 1.188 L 0.054 1.188 M 1.4114670410156251 1.188 L 1.4114670410156251 0.9299999999999999 L 1.526967041015625 0.9299999999999999 L 1.7279670410156251 0.28049999999999997 L 1.5749670410156251 0.28049999999999997 L 1.5749670410156251 0.022499999999999964 L 2.300967041015625 0.022499999999999964 L 2.560467041015625 0.9299999999999999 L 2.675967041015625 0.9299999999999999 L 2.675967041015625 1.188 L 2.020467041015625 1.188 L 2.020467041015625 0.9299999999999999 L 2.114967041015625 0.9299999999999999 L 2.0834670410156253 0.8054999999999999 L 1.819467041015625 0.8054999999999999 L 1.7864670410156251 0.9299999999999999 L 1.925967041015625 0.9299999999999999 L 1.925967041015625 1.188 L 1.4114670410156251 1.188 M 1.8569670410156252 0.6285 L 2.048967041015625 0.6285 L 1.9634670410156252 0.27149999999999996 L 1.8569670410156252 0.6285 M 2.7854802246093753 0.9299999999999999 L 2.9024802246093753 0.9299999999999999 L 2.9024802246093753 0.28049999999999997 L 2.7854802246093753 0.28049999999999997 L 2.7854802246093753 0.022499999999999964 L 3.533980224609375 0.022499999999999964 Q 3.715480224609375 0.022499999999999964 3.8009802246093756 0.09599999999999986 Q 3.8864802246093753 0.16949999999999998 3.8864802246093753 0.33899999999999997 Q 3.8864802246093753 0.45299999999999996 3.8227302246093755 0.5145 Q 3.7589802246093753 0.576 3.6419802246093753 0.597 Q 3.7469802246093753 0.6134999999999999 3.7934802246093753 0.67575 Q 3.8399802246093753 0.738 3.8399802246093753 0.831 L 3.8399802246093753 0.9255 L 4.003480224609375 0.9255 L 4.003480224609375 1.188 L 3.767980224609375 1.188 Q 3.6539802246093753 1.188 3.6044802246093752 1.173 Q 3.554980224609375 1.158 3.528730224609375 1.0905 Q 3.5024802246093754 1.023 3.5024802246093754 0.8654999999999999 Q 3.5024802246093754 0.7754999999999999 3.473230224609375 0.732 Q 3.4439802246093754 0.6884999999999999 3.365980224609375 0.6884999999999999 L 3.2774802246093753 0.6884999999999999 L 3.2774802246093753 0.9299999999999999 L 3.3944802246093753 0.9299999999999999 L 3.3944802246093753 1.188 L 2.7854802246093753 1.188 L 2.7854802246093753 0.9299999999999999 M 3.3779802246093755 0.5219999999999999 Q 3.4574802246093754 0.5219999999999999 3.496480224609375 0.49349999999999994 Q 3.5354802246093753 0.46499999999999997 3.5354802246093753 0.3929999999999999 Q 3.5354802246093753 0.3404999999999999 3.495730224609375 0.3104999999999999 Q 3.4559802246093754 0.28049999999999997 3.392980224609375 0.28049999999999997 L 3.2774802246093753 0.28049999999999997 L 3.2774802246093753 0.5219999999999999 L 3.3779802246093755 0.5219999999999999 M 4.104008056640625 1.188 L 4.104008056640625 0.9299999999999999 L 4.221008056640625 0.9299999999999999 L 4.221008056640625 0.28049999999999997 L 4.104008056640625 0.28049999999999997 L 4.104008056640625 0.022499999999999964 L 4.713008056640625 0.022499999999999964 L 4.713008056640625 0.28049999999999997 L 4.596008056640625 0.28049999999999997 L 4.596008056640625 0.9299999999999999 L 4.713008056640625 0.9299999999999999 L 4.713008056640625 1.188 L 4.104008056640625 1.188 M 5.238779296874999 1.18875 Q 5.185529296875 1.1684999999999999 5.124029296874999 1.1204999999999998 L 5.098529296874999 1.188 L 4.861529296874999 1.188 L 4.861529296874999 0.831 L 5.097029296874999 0.831 Q 5.119529296874999 0.8925 5.166779296874999 0.9179999999999999 Q 5.214029296874999 0.9435 5.283029296875 0.9435 Q 5.325029296875 0.9435 5.355029296874999 0.92625 Q 5.3850292968749995 0.9089999999999999 5.3850292968749995 0.8805 Q 5.3850292968749995 0.8444999999999999 5.354279296874999 0.8265 Q 5.323529296875 0.8085 5.2680292968749995 0.7934999999999999 Q 5.1270292968749995 0.7545 5.036279296875 0.7094999999999999 Q 4.945529296875 0.6645 4.890029296874999 0.5804999999999999 Q 4.834529296875 0.49649999999999994 4.834529296875 0.35849999999999993 Q 4.834529296875 0.2519999999999999 4.880279296875 0.17099999999999982 Q 4.926029296875 0.08999999999999986 5.011529296875 0.04499999999999993 Q 5.097029296874999 0 5.212529296874999 0 Q 5.353529296874999 0 5.436029296875 0.08999999999999986 L 5.473529296874999 0.020999999999999908 L 5.683529296874999 0.020999999999999908 L 5.683529296874999 0.37049999999999994 L 5.458529296875 0.37049999999999994 Q 5.427029296874999 0.3044999999999999 5.388779296875 0.2789999999999999 Q 5.350529296875 0.25349999999999995 5.284529296874999 0.25349999999999995 Q 5.233529296875 0.25349999999999995 5.205779296875 0.27149999999999996 Q 5.178029296875 0.2895 5.178029296875 0.32099999999999995 Q 5.178029296875 0.3554999999999999 5.217779296874999 0.37424999999999997 Q 5.257529296874999 0.3929999999999999 5.331029296874999 0.4095 Q 5.461529296875 0.4394999999999999 5.552279296875 0.4837499999999999 Q 5.6430292968749995 0.5279999999999999 5.697779296875 0.6097499999999999 Q 5.752529296874999 0.6915 5.752529296874999 0.8205 Q 5.752529296874999 0.9299999999999999 5.706779296874999 1.0185 Q 5.661029296874999 1.107 5.576279296875 1.158 Q 5.491529296874999 1.2089999999999999 5.382029296874999 1.2089999999999999 Q 5.292029296875 1.2089999999999999 5.238779296874999 1.18875 M 5.877046875 1.188 L 5.877046875 0.9299999999999999 L 5.9940468749999996 0.9299999999999999 L 5.9940468749999996 0.28049999999999997 L 5.877046875 0.28049999999999997 L 5.877046875 0.022499999999999964 L 6.4620468749999995 0.020999999999999908 L 6.4620468749999995 0.28049999999999997 L 6.3690468749999996 0.28049999999999997 L 6.3690468749999996 0.4724999999999999 L 6.6495468749999995 0.4724999999999999 L 6.6495468749999995 0.28049999999999997 L 6.5565468749999996 0.28049999999999997 L 6.5565468749999996 0.020999999999999908 L 7.1415468749999995 0.022499999999999964 L 7.1415468749999995 0.28049999999999997 L 7.0245468749999995 0.28049999999999997 L 7.0245468749999995 0.9299999999999999 L 7.1415468749999995 0.9299999999999999 L 7.1415468749999995 1.188 L 6.5565468749999996 1.188 L 6.5565468749999996 0.9299999999999999 L 6.6495468749999995 0.9299999999999999 L 6.6495468749999995 0.7229999999999999 L 6.3690468749999996 0.7229999999999999 L 6.3690468749999996 0.9299999999999999 L 6.4620468749999995 0.9299999999999999 L 6.4620468749999995 1.188 L 5.877046875 1.188 M 7.995754394531249 1.18875 Q 7.94250439453125 1.1684999999999999 7.881004394531249 1.1204999999999998 L 7.855504394531249 1.188 L 7.618504394531249 1.188 L 7.618504394531249 0.831 L 7.854004394531249 0.831 Q 7.876504394531249 0.8925 7.923754394531249 0.9179999999999999 Q 7.971004394531249 0.9435 8.04000439453125 0.9435 Q 8.08200439453125 0.9435 8.11200439453125 0.92625 Q 8.14200439453125 0.9089999999999999 8.14200439453125 0.8805 Q 8.14200439453125 0.8444999999999999 8.11125439453125 0.8265 Q 8.08050439453125 0.8085 8.02500439453125 0.7934999999999999 Q 7.8840043945312495 0.7545 7.79325439453125 0.7094999999999999 Q 7.70250439453125 0.6645 7.647004394531249 0.5804999999999999 Q 7.59150439453125 0.49649999999999994 7.59150439453125 0.35849999999999993 Q 7.59150439453125 0.2519999999999999 7.63725439453125 0.17099999999999982 Q 7.68300439453125 0.08999999999999986 7.7685043945312495 0.04499999999999993 Q 7.854004394531249 0 7.969504394531249 0 Q 8.11050439453125 0 8.193004394531249 0.08999999999999986 L 8.23050439453125 0.020999999999999908 L 8.44050439453125 0.020999999999999908 L 8.44050439453125 0.37049999999999994 L 8.21550439453125 0.37049999999999994 Q 8.18400439453125 0.3044999999999999 8.145754394531249 0.2789999999999999 Q 8.107504394531249 0.25349999999999995 8.04150439453125 0.25349999999999995 Q 7.99050439453125 0.25349999999999995 7.96275439453125 0.27149999999999996 Q 7.93500439453125 0.2895 7.93500439453125 0.32099999999999995 Q 7.93500439453125 0.3554999999999999 7.974754394531249 0.37424999999999997 Q 8.014504394531249 0.3929999999999999 8.08800439453125 0.4095 Q 8.21850439453125 0.4394999999999999 8.30925439453125 0.4837499999999999 Q 8.40000439453125 0.5279999999999999 8.45475439453125 0.6097499999999999 Q 8.50950439453125 0.6915 8.50950439453125 0.8205 Q 8.50950439453125 0.9299999999999999 8.46375439453125 1.0185 Q 8.41800439453125 1.107 8.333254394531249 1.158 Q 8.248504394531249 1.2089999999999999 8.13900439453125 1.2089999999999999 Q 8.049004394531249 1.2089999999999999 7.995754394531249 1.18875 M 8.604021972656248 1.188 L 8.604021972656248 0.9299999999999999 L 8.71952197265625 0.9299999999999999 L 8.92052197265625 0.28049999999999997 L 8.76752197265625 0.28049999999999997 L 8.76752197265625 0.022499999999999964 L 9.49352197265625 0.022499999999999964 L 9.75302197265625 0.9299999999999999 L 9.86852197265625 0.9299999999999999 L 9.86852197265625 1.188 L 9.21302197265625 1.188 L 9.21302197265625 0.9299999999999999 L 9.30752197265625 0.9299999999999999 L 9.276021972656249 0.8054999999999999 L 9.01202197265625 0.8054999999999999 L 8.979021972656248 0.9299999999999999 L 9.11852197265625 0.9299999999999999 L 9.11852197265625 1.188 L 8.604021972656248 1.188 M 9.04952197265625 0.6285 L 9.24152197265625 0.6285 L 9.15602197265625 0.27149999999999996 L 9.04952197265625 0.6285 M 9.97803515625 0.9299999999999999 L 10.095035156249999 0.9299999999999999 L 10.095035156249999 0.28049999999999997 L 9.97803515625 0.28049999999999997 L 9.97803515625 0.022499999999999964 L 10.72653515625 0.022499999999999964 Q 10.90803515625 0.022499999999999964 10.99353515625 0.09599999999999986 Q 11.07903515625 0.16949999999999998 11.07903515625 0.33899999999999997 Q 11.07903515625 0.45299999999999996 11.01528515625 0.5145 Q 10.95153515625 0.576 10.83453515625 0.597 Q 10.939535156249999 0.6134999999999999 10.98603515625 0.67575 Q 11.032535156249999 0.738 11.032535156249999 0.831 L 11.032535156249999 0.9255 L 11.19603515625 0.9255 L 11.19603515625 1.188 L 10.96053515625 1.188 Q 10.846535156249999 1.188 10.79703515625 1.173 Q 10.74753515625 1.158 10.72128515625 1.0905 Q 10.69503515625 1.023 10.69503515625 0.8654999999999999 Q 10.69503515625 0.7754999999999999 10.66578515625 0.732 Q 10.63653515625 0.6884999999999999 10.55853515625 0.6884999999999999 L 10.470035156249999 0.6884999999999999 L 10.470035156249999 0.9299999999999999 L 10.58703515625 0.9299999999999999 L 10.58703515625 1.188 L 9.97803515625 1.188 L 9.97803515625 0.9299999999999999 M 10.57053515625 0.5219999999999999 Q 10.65003515625 0.5219999999999999 10.68903515625 0.49349999999999994 Q 10.72803515625 0.46499999999999997 10.72803515625 0.3929999999999999 Q 10.72803515625 0.3404999999999999 10.68828515625 0.3104999999999999 Q 10.64853515625 0.28049999999999997 10.58553515625 0.28049999999999997 L 10.470035156249999 0.28049999999999997 L 10.470035156249999 0.5219999999999999 L 10.57053515625 0.5219999999999999 M 11.24856298828125 1.188 L 11.24856298828125 0.9299999999999999 L 11.38956298828125 0.9299999999999999 L 11.38956298828125 0.28049999999999997 L 11.24856298828125 0.28049999999999997 L 11.24856298828125 0.022499999999999964 L 11.877062988281251 0.022499999999999964 L 12.10356298828125 0.5834999999999999 L 12.32706298828125 0.022499999999999964 L 12.91356298828125 0.022499999999999964 L 12.91356298828125 0.28049999999999997 L 12.772562988281251 0.28049999999999997 L 12.772562988281251 0.9299999999999999 L 12.91356298828125 0.9299999999999999 L 12.91356298828125 1.188 L 12.303062988281251 1.188 L 12.303062988281251 0.9299999999999999 L 12.397562988281251 0.9299999999999999 L 12.397562988281251 0.4949999999999999 L 12.13956298828125 1.188 L 11.928062988281251 1.188 L 11.62356298828125 0.4784999999999999 L 11.62356298828125 0.9299999999999999 L 11.740562988281251 0.9299999999999999 L 11.740562988281251 1.188 L 11.24856298828125 1.188 M 12.978093017578125 1.188 L 12.978093017578125 0.9299999999999999 L 13.093593017578126 0.9299999999999999 L 13.294593017578126 0.28049999999999997 L 13.141593017578126 0.28049999999999997 L 13.141593017578126 0.022499999999999964 L 13.867593017578127 0.022499999999999964 L 14.127093017578126 0.9299999999999999 L 14.242593017578127 0.9299999999999999 L 14.242593017578127 1.188 L 13.587093017578127 1.188 L 13.587093017578127 0.9299999999999999 L 13.681593017578127 0.9299999999999999 L 13.650093017578126 0.8054999999999999 L 13.386093017578126 0.8054999999999999 L 13.353093017578125 0.9299999999999999 L 13.492593017578127 0.9299999999999999 L 13.492593017578127 1.188 L 12.978093017578125 1.188 M 13.423593017578126 0.6285 L 13.615593017578126 0.6285 L 13.530093017578126 0.27149999999999996 L 13.423593017578126 0.6285" fill="#ffffff" fill-rule="nonzero"></path></g><g></g><g clip-path="url(#SvgjsClipPath1002)"><g clip-path="url(#SvgjsClipPath1000cf4632d6-10f8-451a-a1a7-e7a237fce323)"><path d=" M 12.23908743598443 -7.252806141303253 L 7.2121013787309165 -12.254308510857994 C 6.767667663816637 -12.693242232114331 6.051955862140556 -12.69010306600175 5.611389565577236 -12.247287667736375 C 5.170823269013914 -11.804472269470999 5.171328543762867 -11.088753761872004 5.612519628345016 -10.646560856576512 L 9.863567845468832 -6.417229393156312 L 5.61239322116395 -2.1878979297360903 C 5.16842596564601 -1.7461507199340147 5.166626263004627 -1.0281372793298171 5.608373472806703 -0.5841700238118772 C 6.050120682608778 -0.1402027682939373 6.768134123212976 -0.1384030656525539 7.2121013787309165 -0.5801502754546277 L 12.23908743598443 -5.58165264500937 C 12.460855731133986 -5.802124509207805 12.581308964638175 -6.104662682362837 12.571765855059969 -6.417229393156311 C 12.581308964638175 -6.729796103949789 12.460855731133986 -7.032334277104819 12.23908743598443 -7.252806141303254 Z" fill="#a4cb6a" transform="matrix(1,0,0,1,0,0)" fill-rule="nonzero"></path></g><g clip-path="url(#SvgjsClipPath1000cf4632d6-10f8-451a-a1a7-e7a237fce323)"><path d=" M 6.461596663427596 -6.417229393156311 C 6.471192947517177 -6.730800189395677 6.349965097428823 -7.034240724031732 6.12694629232775 -7.2548792190723965 L 3.602089258125001 -9.75407559552291 C 3.1569770733449003 -10.194642963050349 2.438991936476503 -10.190958664504189 1.998424564259044 -9.745846484366218 C 1.557857192041585 -9.30073430422825 1.5615414830225443 -8.582749167321033 2.006653658518381 -8.142181790413556 L 3.7493283426067947 -6.417229393156312 L 2.006653663277371 -4.692277000609467 C 1.5615414883714522 -4.251709624596726 1.5578571962946133 -3.5337244891595905 1.9984245665632774 -3.088612308568246 C 2.4389919368319415 -2.643500127976898 3.156977072221532 -2.6398158266346172 3.602089258498304 -3.0803831911592052 L 6.126946292327747 -5.579579567240226 C 6.34996249482571 -5.800219787663556 6.4711898724956365 -6.103659139808126 6.461596663427596 -6.417229393156311 Z" fill="#64c6c4" transform="matrix(1,0,0,1,0,0)" fill-rule="nonzero"></path></g></g></g><defs><clipPath id="SvgjsClipPath1002"><path d=" M 1.6704105616963512 -12.584458786312622 h 10.901785077779172 v 12.334458786312622 h -10.901785077779172 Z"></path></clipPath><clipPath id="SvgjsClipPath1000cf4632d6-10f8-451a-a1a7-e7a237fce323"><path d=" M 1.6704105616963503 -12.584458786312622 L 12.572195639475524 -12.584458786312622 L 12.572195639475524 -0.25 L 1.6704105616963492 -0.25 Z"></path></clipPath></defs></svg>